<?xml version="1.0" encoding="utf-8"?>
<svg version="1.1" xmlns:xlink="http://www.w3.org/1999/xlink" width="86px" height="134px" xmlns="http://www.w3.org/2000/svg">
  <defs>
    <filter x="1065px" y="691px" width="86px" height="134px" filterUnits="userSpaceOnUse" id="filter91">
      <feOffset dx="5" dy="5" in="SourceAlpha" result="shadowOffsetInner" />
      <feGaussianBlur stdDeviation="2.5" in="shadowOffsetInner" result="shadowGaussian" />
      <feComposite in2="shadowGaussian" operator="atop" in="SourceAlpha" result="shadowComposite" />
      <feColorMatrix type="matrix" values="0 0 0 0 0.666666666666667  0 0 0 0 0.666666666666667  0 0 0 0 0.666666666666667  0 0 0 0.349019607843137 0  " in="shadowComposite" />
    </filter>
    <g id="widget92">
      <path d="M 1065.5 797.326650728141  C 1065.5 797.326650728141  1065.5 695  1065.5 695  C 1065.5 693.067003375592  1067.06700337559 691.5  1069 691.5  C 1069 691.5  1137 691.5  1137 691.5  C 1138.93299662441 691.5  1140.5 693.067003375592  1140.5 695  C 1140.5 695  1140.5 797.326650728141  1140.5 797.326650728141  C 1140.5 799.259647352549  1138.93299662441 800.826650728141  1137 800.826650728141  C 1137 800.826650728141  1133.07148484873 800.826650728141  1133.07148484873 800.826650728141  C 1133.07148484873 800.826650728141  1124.1138340025 813.754379678563  1124.1138340025 813.754379678563  C 1124.1138340025 813.754379678563  1113.57075822773 800.826650728141  1113.57075822773 800.826650728141  C 1113.57075822773 800.826650728141  1069 800.826650728141  1069 800.826650728141  C 1067.06700337559 800.826650728141  1065.5 799.259647352549  1065.5 797.326650728141  Z " fill-rule="nonzero" fill="#ffffff" stroke="none" />
      <path d="M 1065 797.326650728141  C 1065 797.326650728141  1065 695  1065 695  C 1065 692.790861000677  1066.79086100068 691  1069 691  C 1069 691  1137 691  1137 691  C 1139.20913899932 691  1141 692.790861000677  1141 695  C 1141 695  1141 797.326650728141  1141 797.326650728141  C 1141 799.535789727464  1139.20913899932 801.326650728141  1137 801.326650728141  C 1137 801.326650728141  1133.33333333333 801.326650728141  1133.33333333333 801.326650728141  C 1133.33333333333 801.326650728141  1124.14634146341 814.585365853658  1124.14634146341 814.585365853658  C 1124.14634146341 814.585365853658  1113.33333333333 801.326650728141  1113.33333333333 801.326650728141  C 1113.33333333333 801.326650728141  1069 801.326650728141  1069 801.326650728141  C 1066.79086100068 801.326650728141  1065 799.535789727464  1065 797.326650728141  Z M 1066 797.326650728141  C 1066 798.983504977634  1067.34314575051 800.326650728141  1069 800.326650728141  C 1069 800.326650728141  1113.80818312212 800.326650728141  1113.80818312212 800.326650728141  C 1113.80818312212 800.326650728141  1124.08132654158 812.923393503467  1124.08132654158 812.923393503467  C 1124.08132654158 812.923393503467  1132.80963636412 800.326650728141  1132.80963636412 800.326650728141  C 1132.80963636412 800.326650728141  1137 800.326650728141  1137 800.326650728141  C 1138.65685424949 800.326650728141  1140 798.983504977634  1140 797.326650728141  C 1140 797.326650728141  1140 695  1140 695  C 1140 693.343145750508  1138.65685424949 692  1137 692  C 1137 692  1069 692  1069 692  C 1067.34314575051 692  1066 693.343145750508  1066 695  C 1066 695  1066 797.326650728141  1066 797.326650728141  Z " fill-rule="nonzero" fill="#d7d7d7" stroke="none" />
    </g>
  </defs>
  <g transform="matrix(1 0 0 1 -1065 -691 )">
    <use xlink:href="#widget92" filter="url(#filter91)" />
    <use xlink:href="#widget92" />
  </g>
</svg>