<?xml version="1.0" encoding="utf-8"?>
<svg version="1.1" xmlns:xlink="http://www.w3.org/1999/xlink" width="86px" height="102px" xmlns="http://www.w3.org/2000/svg">
  <defs>
    <filter x="1065px" y="691px" width="86px" height="102px" filterUnits="userSpaceOnUse" id="filter125">
      <feOffset dx="5" dy="5" in="SourceAlpha" result="shadowOffsetInner" />
      <feGaussianBlur stdDeviation="2.5" in="shadowOffsetInner" result="shadowGaussian" />
      <feComposite in2="shadowGaussian" operator="atop" in="SourceAlpha" result="shadowComposite" />
      <feColorMatrix type="matrix" values="0 0 0 0 0.666666666666667  0 0 0 0 0.666666666666667  0 0 0 0 0.666666666666667  0 0 0 0.349019607843137 0  " in="shadowComposite" />
    </filter>
    <g id="widget126">
      <path d="M 1065.5 768.855256991847  C 1065.5 768.855256991847  1065.5 695  1065.5 695  C 1065.5 693.067003375592  1067.06700337559 691.5  1069 691.5  C 1069 691.5  1137 691.5  1137 691.5  C 1138.93299662441 691.5  1140.5 693.067003375592  1140.5 695  C 1140.5 695  1140.5 768.855256991847  1140.5 768.855256991847  C 1140.5 770.788253616255  1138.93299662441 772.355256991847  1137 772.355256991847  C 1137 772.355256991847  1133.11614899548 772.355256991847  1133.11614899548 772.355256991847  C 1133.11614899548 772.355256991847  1124.11776198684 781.990416691268  1124.11776198684 781.990416691268  C 1124.11776198684 781.990416691268  1113.52674010942 772.355256991847  1113.52674010942 772.355256991847  C 1113.52674010942 772.355256991847  1069 772.355256991847  1069 772.355256991847  C 1067.06700337559 772.355256991847  1065.5 770.788253616255  1065.5 768.855256991847  Z " fill-rule="nonzero" fill="#ffffff" stroke="none" />
      <path d="M 1065 768.855256991847  C 1065 768.855256991847  1065 695  1065 695  C 1065 692.790861000677  1066.79086100068 691  1069 691  C 1069 691  1137 691  1137 691  C 1139.20913899932 691  1141 692.790861000677  1141 695  C 1141 695  1141 768.855256991847  1141 768.855256991847  C 1141 771.06439599117  1139.20913899932 772.855256991847  1137 772.855256991847  C 1137 772.855256991847  1133.33333333333 772.855256991847  1133.33333333333 772.855256991847  C 1133.33333333333 772.855256991847  1124.14634146341 782.692368214005  1124.14634146341 782.692368214005  C 1124.14634146341 782.692368214005  1113.33333333333 772.855256991847  1113.33333333333 772.855256991847  C 1113.33333333333 772.855256991847  1069 772.855256991847  1069 772.855256991847  C 1066.79086100068 772.855256991847  1065 771.06439599117  1065 768.855256991847  Z M 1066 768.855256991847  C 1066 770.512111241339  1067.34314575051 771.855256991847  1069 771.855256991847  C 1069 771.855256991847  1113.72014688551 771.855256991847  1113.72014688551 771.855256991847  C 1113.72014688551 771.855256991847  1124.08918251027 781.288465168532  1124.08918251027 781.288465168532  C 1124.08918251027 781.288465168532  1132.89896465762 771.855256991847  1132.89896465762 771.855256991847  C 1132.89896465762 771.855256991847  1137 771.855256991847  1137 771.855256991847  C 1138.65685424949 771.855256991847  1140 770.512111241339  1140 768.855256991847  C 1140 768.855256991847  1140 695  1140 695  C 1140 693.343145750508  1138.65685424949 692  1137 692  C 1137 692  1069 692  1069 692  C 1067.34314575051 692  1066 693.343145750508  1066 695  C 1066 695  1066 768.855256991847  1066 768.855256991847  Z " fill-rule="nonzero" fill="#d7d7d7" stroke="none" />
    </g>
  </defs>
  <g transform="matrix(1 0 0 1 -1065 -691 )">
    <use xlink:href="#widget126" filter="url(#filter125)" />
    <use xlink:href="#widget126" />
  </g>
</svg>