<?xml version="1.0" encoding="utf-8"?>
<svg version="1.1" xmlns:xlink="http://www.w3.org/1999/xlink" width="86px" height="104px" xmlns="http://www.w3.org/2000/svg">
  <defs>
    <filter x="1065px" y="687px" width="86px" height="104px" filterUnits="userSpaceOnUse" id="filter77">
      <feOffset dx="5" dy="5" in="SourceAlpha" result="shadowOffsetInner" />
      <feGaussianBlur stdDeviation="2.5" in="shadowOffsetInner" result="shadowGaussian" />
      <feComposite in2="shadowGaussian" operator="atop" in="SourceAlpha" result="shadowComposite" />
      <feColorMatrix type="matrix" values="0 0 0 0 0.666666666666667  0 0 0 0 0.666666666666667  0 0 0 0 0.666666666666667  0 0 0 0.349019607843137 0  " in="shadowComposite" />
    </filter>
    <g id="widget78">
      <path d="M 1065.5 764.021134128479  C 1065.5 764.021134128479  1065.5 691  1065.5 691  C 1065.5 689.067003375592  1067.06700337559 687.5  1069 687.5  C 1069 687.5  1137 687.5  1137 687.5  C 1138.93299662441 687.5  1140.5 689.067003375592  1140.5 691  C 1140.5 691  1140.5 764.021134128479  1140.5 764.021134128479  C 1140.5 765.954130752887  1138.93299662441 767.521134128479  1137 767.521134128479  C 1137 767.521134128479  1133.09686356932 767.521134128479  1133.09686356932 767.521134128479  C 1133.09686356932 767.521134128479  1123.08111689377 779.724329860539  1123.08111689377 779.724329860539  C 1123.08111689377 779.724329860539  1113.57768462618 767.521134128479  1113.57768462618 767.521134128479  C 1113.57768462618 767.521134128479  1069 767.521134128479  1069 767.521134128479  C 1067.06700337559 767.521134128479  1065.5 765.954130752887  1065.5 764.021134128479  Z " fill-rule="nonzero" fill="#ffffff" stroke="none" />
      <path d="M 1065 764.021134128479  C 1065 764.021134128479  1065 691  1065 691  C 1065 688.790861000677  1066.79086100068 687  1069 687  C 1069 687  1137 687  1137 687  C 1139.20913899932 687  1141 688.790861000677  1141 691  C 1141 691  1141 764.021134128479  1141 764.021134128479  C 1141 766.230273127802  1139.20913899932 768.021134128479  1137 768.021134128479  C 1137 768.021134128479  1133.33333333333 768.021134128479  1133.33333333333 768.021134128479  C 1133.33333333333 768.021134128479  1123.07086614173 780.524934383202  1123.07086614173 780.524934383202  C 1123.07086614173 780.524934383202  1113.33333333333 768.021134128479  1113.33333333333 768.021134128479  C 1113.33333333333 768.021134128479  1069 768.021134128479  1069 768.021134128479  C 1066.79086100068 768.021134128479  1065 766.230273127802  1065 764.021134128479  Z M 1066 764.021134128479  C 1066 765.677988377971  1067.34314575051 767.021134128479  1069 767.021134128479  C 1069 767.021134128479  1113.82203591902 767.021134128479  1113.82203591902 767.021134128479  C 1113.82203591902 767.021134128479  1123.0913676458 778.923725337876  1123.0913676458 778.923725337876  C 1123.0913676458 778.923725337876  1132.8603938053 767.021134128479  1132.8603938053 767.021134128479  C 1132.8603938053 767.021134128479  1137 767.021134128479  1137 767.021134128479  C 1138.65685424949 767.021134128479  1140 765.677988377971  1140 764.021134128479  C 1140 764.021134128479  1140 691  1140 691  C 1140 689.343145750508  1138.65685424949 688  1137 688  C 1137 688  1069 688  1069 688  C 1067.34314575051 688  1066 689.343145750508  1066 691  C 1066 691  1066 764.021134128479  1066 764.021134128479  Z " fill-rule="nonzero" fill="#d7d7d7" stroke="none" />
    </g>
  </defs>
  <g transform="matrix(1 0 0 1 -1065 -687 )">
    <use xlink:href="#widget78" filter="url(#filter77)" />
    <use xlink:href="#widget78" />
  </g>
</svg>