<?xml version="1.0" encoding="utf-8"?>
<svg version="1.1" xmlns:xlink="http://www.w3.org/1999/xlink" width="86px" height="102px" xmlns="http://www.w3.org/2000/svg">
  <defs>
    <filter x="1065px" y="213px" width="86px" height="102px" filterUnits="userSpaceOnUse" id="filter235">
      <feOffset dx="5" dy="5" in="SourceAlpha" result="shadowOffsetInner" />
      <feGaussianBlur stdDeviation="2.5" in="shadowOffsetInner" result="shadowGaussian" />
      <feComposite in2="shadowGaussian" operator="atop" in="SourceAlpha" result="shadowComposite" />
      <feColorMatrix type="matrix" values="0 0 0 0 0.666666666666667  0 0 0 0 0.666666666666667  0 0 0 0 0.666666666666667  0 0 0 0.349019607843137 0  " in="shadowComposite" />
    </filter>
    <g id="widget236">
      <path d="M 1065.5 290.855256991847  C 1065.5 290.855256991847  1065.5 217  1065.5 217  C 1065.5 215.067003375592  1067.06700337559 213.5  1069 213.5  C 1069 213.5  1137 213.5  1137 213.5  C 1138.93299662441 213.5  1140.5 215.067003375592  1140.5 217  C 1140.5 217  1140.5 290.855256991847  1140.5 290.855256991847  C 1140.5 292.788253616255  1138.93299662441 294.355256991847  1137 294.355256991847  C 1137 294.355256991847  1133.11614899548 294.355256991847  1133.11614899548 294.355256991847  C 1133.11614899548 294.355256991847  1124.11776198684 303.990416691268  1124.11776198684 303.990416691268  C 1124.11776198684 303.990416691268  1113.52674010942 294.355256991847  1113.52674010942 294.355256991847  C 1113.52674010942 294.355256991847  1069 294.355256991847  1069 294.355256991847  C 1067.06700337559 294.355256991847  1065.5 292.788253616255  1065.5 290.855256991847  Z " fill-rule="nonzero" fill="#ffffff" stroke="none" />
      <path d="M 1065 290.855256991847  C 1065 290.855256991847  1065 217  1065 217  C 1065 214.790861000677  1066.79086100068 213  1069 213  C 1069 213  1137 213  1137 213  C 1139.20913899932 213  1141 214.790861000677  1141 217  C 1141 217  1141 290.855256991847  1141 290.855256991847  C 1141 293.06439599117  1139.20913899932 294.855256991847  1137 294.855256991847  C 1137 294.855256991847  1133.33333333333 294.855256991847  1133.33333333333 294.855256991847  C 1133.33333333333 294.855256991847  1124.14634146341 304.692368214005  1124.14634146341 304.692368214005  C 1124.14634146341 304.692368214005  1113.33333333333 294.855256991847  1113.33333333333 294.855256991847  C 1113.33333333333 294.855256991847  1069 294.855256991847  1069 294.855256991847  C 1066.79086100068 294.855256991847  1065 293.06439599117  1065 290.855256991847  Z M 1066 290.855256991847  C 1066 292.512111241339  1067.34314575051 293.855256991847  1069 293.855256991847  C 1069 293.855256991847  1113.72014688551 293.855256991847  1113.72014688551 293.855256991847  C 1113.72014688551 293.855256991847  1124.08918251027 303.288465168532  1124.08918251027 303.288465168532  C 1124.08918251027 303.288465168532  1132.89896465762 293.855256991847  1132.89896465762 293.855256991847  C 1132.89896465762 293.855256991847  1137 293.855256991847  1137 293.855256991847  C 1138.65685424949 293.855256991847  1140 292.512111241339  1140 290.855256991847  C 1140 290.855256991847  1140 217  1140 217  C 1140 215.343145750508  1138.65685424949 214  1137 214  C 1137 214  1069 214  1069 214  C 1067.34314575051 214  1066 215.343145750508  1066 217  C 1066 217  1066 290.855256991847  1066 290.855256991847  Z " fill-rule="nonzero" fill="#d7d7d7" stroke="none" />
    </g>
  </defs>
  <g transform="matrix(1 0 0 1 -1065 -213 )">
    <use xlink:href="#widget236" filter="url(#filter235)" />
    <use xlink:href="#widget236" />
  </g>
</svg>