<?xml version="1.0" encoding="utf-8"?>
<svg version="1.1" xmlns:xlink="http://www.w3.org/1999/xlink" width="86px" height="130px" xmlns="http://www.w3.org/2000/svg">
  <defs>
    <filter x="1065px" y="687px" width="86px" height="130px" filterUnits="userSpaceOnUse" id="filter93">
      <feOffset dx="5" dy="5" in="SourceAlpha" result="shadowOffsetInner" />
      <feGaussianBlur stdDeviation="2.5" in="shadowOffsetInner" result="shadowGaussian" />
      <feComposite in2="shadowGaussian" operator="atop" in="SourceAlpha" result="shadowComposite" />
      <feColorMatrix type="matrix" values="0 0 0 0 0.666666666666667  0 0 0 0 0.666666666666667  0 0 0 0 0.666666666666667  0 0 0 0.349019607843137 0  " in="shadowComposite" />
    </filter>
    <g id="widget94">
      <path d="M 1065.5 786.431235057632  C 1065.5 786.431235057632  1065.5 691  1065.5 691  C 1065.5 689.067003375592  1067.06700337559 687.5  1069 687.5  C 1069 687.5  1137 687.5  1137 687.5  C 1138.93299662441 687.5  1140.5 689.067003375592  1140.5 691  C 1140.5 691  1140.5 786.431235057632  1140.5 786.431235057632  C 1140.5 788.36423168204  1138.93299662441 789.931235057632  1137 789.931235057632  C 1137 789.931235057632  1133.06037196463 789.931235057632  1133.06037196463 789.931235057632  C 1133.06037196463 789.931235057632  1123.08198872763 805.451667501838  1123.08198872763 805.451667501838  C 1123.08198872763 805.451667501838  1113.61400872526 789.931235057632  1113.61400872526 789.931235057632  C 1113.61400872526 789.931235057632  1069 789.931235057632  1069 789.931235057632  C 1067.06700337559 789.931235057632  1065.5 788.36423168204  1065.5 786.431235057632  Z " fill-rule="nonzero" fill="#ffffff" stroke="none" />
      <path d="M 1065 786.431235057633  C 1065 786.431235057633  1065 691  1065 691  C 1065 688.790861000677  1066.79086100068 687  1069 687  C 1069 687  1137 687  1137 687  C 1139.20913899932 687  1141 688.790861000677  1141 691  C 1141 691  1141 786.431235057632  1141 786.431235057632  C 1141 788.640374056956  1139.20913899932 790.431235057632  1137 790.431235057632  C 1137 790.431235057632  1133.33333333333 790.431235057632  1133.33333333333 790.431235057632  C 1133.33333333333 790.431235057632  1123.07086614173 806.393533255152  1123.07086614173 806.393533255152  C 1123.07086614173 806.393533255152  1113.33333333333 790.431235057632  1113.33333333333 790.431235057632  C 1113.33333333333 790.431235057632  1069 790.431235057632  1069 790.431235057632  C 1066.79086100068 790.431235057632  1065 788.640374056956  1065 786.431235057633  Z M 1066 786.431235057632  C 1066 788.088089307125  1067.34314575051 789.431235057632  1069 789.431235057632  C 1069 789.431235057632  1113.89468411718 789.431235057632  1113.89468411718 789.431235057632  C 1113.89468411718 789.431235057632  1123.09311131352 804.509801748523  1123.09311131352 804.509801748523  C 1123.09311131352 804.509801748523  1132.78741059592 789.431235057632  1132.78741059592 789.431235057632  C 1132.78741059592 789.431235057632  1137 789.431235057632  1137 789.431235057632  C 1138.65685424949 789.431235057632  1140 788.088089307125  1140 786.431235057632  C 1140 786.431235057632  1140 691  1140 691  C 1140 689.343145750508  1138.65685424949 688  1137 688  C 1137 688  1069 688  1069 688  C 1067.34314575051 688  1066 689.343145750508  1066 691  C 1066 691  1066 786.431235057632  1066 786.431235057632  Z " fill-rule="nonzero" fill="#d7d7d7" stroke="none" />
    </g>
  </defs>
  <g transform="matrix(1 0 0 1 -1065 -687 )">
    <use xlink:href="#widget94" filter="url(#filter93)" />
    <use xlink:href="#widget94" />
  </g>
</svg>