<?xml version="1.0" encoding="utf-8"?>
<svg version="1.1" xmlns:xlink="http://www.w3.org/1999/xlink" width="86px" height="104px" xmlns="http://www.w3.org/2000/svg">
  <defs>
    <filter x="1065px" y="209px" width="86px" height="104px" filterUnits="userSpaceOnUse" id="filter131">
      <feOffset dx="5" dy="5" in="SourceAlpha" result="shadowOffsetInner" />
      <feGaussianBlur stdDeviation="2.5" in="shadowOffsetInner" result="shadowGaussian" />
      <feComposite in2="shadowGaussian" operator="atop" in="SourceAlpha" result="shadowComposite" />
      <feColorMatrix type="matrix" values="0 0 0 0 0.666666666666667  0 0 0 0 0.666666666666667  0 0 0 0 0.666666666666667  0 0 0 0.349019607843137 0  " in="shadowComposite" />
    </filter>
    <g id="widget132">
      <path d="M 1065.5 286.021134128479  C 1065.5 286.021134128479  1065.5 213  1065.5 213  C 1065.5 211.067003375592  1067.06700337559 209.5  1069 209.5  C 1069 209.5  1137 209.5  1137 209.5  C 1138.93299662441 209.5  1140.5 211.067003375592  1140.5 213  C 1140.5 213  1140.5 286.021134128479  1140.5 286.021134128479  C 1140.5 287.954130752887  1138.93299662441 289.521134128479  1137 289.521134128479  C 1137 289.521134128479  1133.09686356932 289.521134128479  1133.09686356932 289.521134128479  C 1133.09686356932 289.521134128479  1123.08111689377 301.724329860539  1123.08111689377 301.724329860539  C 1123.08111689377 301.724329860539  1113.57768462618 289.521134128479  1113.57768462618 289.521134128479  C 1113.57768462618 289.521134128479  1069 289.521134128479  1069 289.521134128479  C 1067.06700337559 289.521134128479  1065.5 287.954130752887  1065.5 286.021134128479  Z " fill-rule="nonzero" fill="#ffffff" stroke="none" />
      <path d="M 1065 286.021134128479  C 1065 286.021134128479  1065 213  1065 213  C 1065 210.790861000677  1066.79086100068 209  1069 209  C 1069 209  1137 209  1137 209  C 1139.20913899932 209  1141 210.790861000677  1141 213  C 1141 213  1141 286.021134128479  1141 286.021134128479  C 1141 288.230273127802  1139.20913899932 290.021134128479  1137 290.021134128479  C 1137 290.021134128479  1133.33333333333 290.021134128479  1133.33333333333 290.021134128479  C 1133.33333333333 290.021134128479  1123.07086614173 302.524934383202  1123.07086614173 302.524934383202  C 1123.07086614173 302.524934383202  1113.33333333333 290.021134128479  1113.33333333333 290.021134128479  C 1113.33333333333 290.021134128479  1069 290.021134128479  1069 290.021134128479  C 1066.79086100068 290.021134128479  1065 288.230273127802  1065 286.021134128479  Z M 1066 286.021134128479  C 1066 287.677988377971  1067.34314575051 289.021134128479  1069 289.021134128479  C 1069 289.021134128479  1113.82203591902 289.021134128479  1113.82203591902 289.021134128479  C 1113.82203591902 289.021134128479  1123.0913676458 300.923725337876  1123.0913676458 300.923725337876  C 1123.0913676458 300.923725337876  1132.8603938053 289.021134128479  1132.8603938053 289.021134128479  C 1132.8603938053 289.021134128479  1137 289.021134128479  1137 289.021134128479  C 1138.65685424949 289.021134128479  1140 287.677988377971  1140 286.021134128479  C 1140 286.021134128479  1140 213  1140 213  C 1140 211.343145750508  1138.65685424949 210  1137 210  C 1137 210  1069 210  1069 210  C 1067.34314575051 210  1066 211.343145750508  1066 213  C 1066 213  1066 286.021134128479  1066 286.021134128479  Z " fill-rule="nonzero" fill="#d7d7d7" stroke="none" />
    </g>
  </defs>
  <g transform="matrix(1 0 0 1 -1065 -209 )">
    <use xlink:href="#widget132" filter="url(#filter131)" />
    <use xlink:href="#widget132" />
  </g>
</svg>