<?xml version="1.0" encoding="utf-8"?>
<svg version="1.1" xmlns:xlink="http://www.w3.org/1999/xlink" width="75px" height="75px" xmlns="http://www.w3.org/2000/svg">
  <g transform="matrix(1 0 0 1 -29 -98 )">
    <path d="M 66.5 99  C 86.94 99  103 115.06  103 135.5  C 103 155.94  86.94 172  66.5 172  C 46.06 172  30 155.94  30 135.5  C 30 115.06  46.06 99  66.5 99  Z " fill-rule="nonzero" fill="#f2f2f2" stroke="none" />
    <path d="M 66.5 99  C 86.94 99  103 115.06  103 135.5  C 103 155.94  86.94 172  66.5 172  C 46.06 172  30 155.94  30 135.5  C 30 115.06  46.06 99  66.5 99  Z " stroke-width="2" stroke="#3e8df7" fill="none" />
  </g>
</svg>