<?xml version="1.0" encoding="utf-8"?>
<svg version="1.1" xmlns:xlink="http://www.w3.org/1999/xlink" width="86px" height="157px" xmlns="http://www.w3.org/2000/svg">
  <defs>
    <filter x="1383px" y="485px" width="86px" height="157px" filterUnits="userSpaceOnUse" id="filter213">
      <feOffset dx="5" dy="5" in="SourceAlpha" result="shadowOffsetInner" />
      <feGaussianBlur stdDeviation="2.5" in="shadowOffsetInner" result="shadowGaussian" />
      <feComposite in2="shadowGaussian" operator="atop" in="SourceAlpha" result="shadowComposite" />
      <feColorMatrix type="matrix" values="0 0 0 0 0.666666666666667  0 0 0 0 0.666666666666667  0 0 0 0 0.666666666666667  0 0 0 0.349019607843137 0  " in="shadowComposite" />
    </filter>
    <g id="widget214">
      <path d="M 1383.5 616.3421217828  C 1383.5 616.3421217828  1383.5 489  1383.5 489  C 1383.5 487.067003375592  1385.06700337559 485.5  1387 485.5  C 1387 485.5  1455 485.5  1455 485.5  C 1456.93299662441 485.5  1458.5 487.067003375592  1458.5 489  C 1458.5 489  1458.5 616.3421217828  1458.5 616.3421217828  C 1458.5 618.275118407208  1456.93299662441 619.8421217828  1455 619.8421217828  C 1455 619.8421217828  1450.43774810806 619.8421217828  1450.43774810806 619.8421217828  C 1450.43774810806 619.8421217828  1440.94380619146 631.122832469445  1440.94380619146 631.122832469445  C 1440.94380619146 631.122832469445  1430.89466299319 619.8421217828  1430.89466299319 619.8421217828  C 1430.89466299319 619.8421217828  1387 619.8421217828  1387 619.8421217828  C 1385.06700337559 619.8421217828  1383.5 618.275118407208  1383.5 616.3421217828  Z " fill-rule="nonzero" fill="#ffffff" stroke="none" />
      <path d="M 1383 616.3421217828  C 1383 616.3421217828  1383 489  1383 489  C 1383 486.790861000677  1384.79086100068 485  1387 485  C 1387 485  1455 485  1455 485  C 1457.20913899932 485  1459 486.790861000677  1459 489  C 1459 489  1459 616.3421217828  1459 616.3421217828  C 1459 618.551260782123  1457.20913899932 620.3421217828  1455 620.3421217828  C 1455 620.3421217828  1450.67045454545 620.3421217828  1450.67045454545 620.3421217828  C 1450.67045454545 620.3421217828  1440.95454545455 631.886574074074  1440.95454545455 631.886574074074  C 1440.95454545455 631.886574074074  1430.67045454545 620.3421217828  1430.67045454545 620.3421217828  C 1430.67045454545 620.3421217828  1387 620.3421217828  1387 620.3421217828  C 1384.79086100068 620.3421217828  1383 618.551260782123  1383 616.3421217828  Z M 1384 616.3421217828  C 1384 617.998976032292  1385.34314575051 619.3421217828  1387 619.3421217828  C 1387 619.3421217828  1431.11887144093 619.3421217828  1431.11887144093 619.3421217828  C 1431.11887144093 619.3421217828  1440.93306692838 630.359090864816  1440.93306692838 630.359090864816  C 1440.93306692838 630.359090864816  1450.20504167067 619.3421217828  1450.20504167067 619.3421217828  C 1450.20504167067 619.3421217828  1455 619.3421217828  1455 619.3421217828  C 1456.65685424949 619.3421217828  1458 617.998976032292  1458 616.3421217828  C 1458 616.3421217828  1458 489  1458 489  C 1458 487.343145750508  1456.65685424949 486  1455 486  C 1455 486  1387 486  1387 486  C 1385.34314575051 486  1384 487.343145750508  1384 489  C 1384 489  1384 616.3421217828  1384 616.3421217828  Z " fill-rule="nonzero" fill="#d7d7d7" stroke="none" />
    </g>
  </defs>
  <g transform="matrix(1 0 0 1 -1383 -485 )">
    <use xlink:href="#widget214" filter="url(#filter213)" />
    <use xlink:href="#widget214" />
  </g>
</svg>