<?xml version="1.0" encoding="utf-8"?>
<svg version="1.1" xmlns:xlink="http://www.w3.org/1999/xlink" width="86px" height="158px" xmlns="http://www.w3.org/2000/svg">
  <defs>
    <filter x="1382px" y="323px" width="86px" height="158px" filterUnits="userSpaceOnUse" id="filter205">
      <feOffset dx="5" dy="5" in="SourceAlpha" result="shadowOffsetInner" />
      <feGaussianBlur stdDeviation="2.5" in="shadowOffsetInner" result="shadowGaussian" />
      <feComposite in2="shadowGaussian" operator="atop" in="SourceAlpha" result="shadowComposite" />
      <feColorMatrix type="matrix" values="0 0 0 0 0.666666666666667  0 0 0 0 0.666666666666667  0 0 0 0 0.666666666666667  0 0 0 0.349019607843137 0  " in="shadowComposite" />
    </filter>
    <g id="widget206">
      <path d="M 1382.5 455.262816488805  C 1382.5 455.262816488805  1382.5 327  1382.5 327  C 1382.5 325.067003375592  1384.06700337559 323.5  1386 323.5  C 1386 323.5  1454 323.5  1454 323.5  C 1455.93299662441 323.5  1457.5 325.067003375592  1457.5 327  C 1457.5 327  1457.5 455.262816488805  1457.5 455.262816488805  C 1457.5 457.195813113213  1455.93299662441 458.762816488805  1454 458.762816488805  C 1454 458.762816488805  1449.43673202602 458.762816488805  1449.43673202602 458.762816488805  C 1449.43673202602 458.762816488805  1439.94377508229 470.119088396713  1439.94377508229 470.119088396713  C 1439.94377508229 470.119088396713  1429.89567445764 458.762816488805  1429.89567445764 458.762816488805  C 1429.89567445764 458.762816488805  1386 458.762816488805  1386 458.762816488805  C 1384.06700337559 458.762816488805  1382.5 457.195813113213  1382.5 455.262816488805  Z " fill-rule="nonzero" fill="#ffffff" stroke="none" />
      <path d="M 1382 455.262816488805  C 1382 455.262816488805  1382 327  1382 327  C 1382 324.790861000677  1383.79086100068 323  1386 323  C 1386 323  1454 323  1454 323  C 1456.20913899932 323  1458 324.790861000677  1458 327  C 1458 327  1458 455.262816488805  1458 455.262816488805  C 1458 457.471955488128  1456.20913899932 459.262816488805  1454 459.262816488805  C 1454 459.262816488805  1449.67045454545 459.262816488805  1449.67045454545 459.262816488805  C 1449.67045454545 459.262816488805  1439.95454545455 470.885802469136  1439.95454545455 470.885802469136  C 1439.95454545455 470.885802469136  1429.67045454545 459.262816488805  1429.67045454545 459.262816488805  C 1429.67045454545 459.262816488805  1386 459.262816488805  1386 459.262816488805  C 1383.79086100068 459.262816488805  1382 457.471955488128  1382 455.262816488805  Z M 1383 455.262816488805  C 1383 456.919670738298  1384.34314575051 458.262816488805  1386 458.262816488805  C 1386 458.262816488805  1430.12089436982 458.262816488805  1430.12089436982 458.262816488805  C 1430.12089436982 458.262816488805  1439.93300471003 469.352374324291  1439.93300471003 469.352374324291  C 1439.93300471003 469.352374324291  1449.20300950659 458.262816488805  1449.20300950659 458.262816488805  C 1449.20300950659 458.262816488805  1454 458.262816488805  1454 458.262816488805  C 1455.65685424949 458.262816488805  1457 456.919670738298  1457 455.262816488805  C 1457 455.262816488805  1457 327  1457 327  C 1457 325.343145750508  1455.65685424949 324  1454 324  C 1454 324  1386 324  1386 324  C 1384.34314575051 324  1383 325.343145750508  1383 327  C 1383 327  1383 455.262816488805  1383 455.262816488805  Z " fill-rule="nonzero" fill="#d7d7d7" stroke="none" />
    </g>
  </defs>
  <g transform="matrix(1 0 0 1 -1382 -323 )">
    <use xlink:href="#widget206" filter="url(#filter205)" />
    <use xlink:href="#widget206" />
  </g>
</svg>