<?xml version="1.0" encoding="utf-8"?>
<svg version="1.1" xmlns:xlink="http://www.w3.org/1999/xlink" width="65px" height="65px" xmlns="http://www.w3.org/2000/svg">
  <g transform="matrix(1 0 0 1 -551 -406 )">
    <path d="M 583.5 407  C 601.14 407  615 420.86  615 438.5  C 615 456.14  601.14 470  583.5 470  C 565.86 470  552 456.14  552 438.5  C 552 420.86  565.86 407  583.5 407  Z " fill-rule="nonzero" fill="#d7d7d7" stroke="none" />
    <path d="M 583.5 407  C 601.14 407  615 420.86  615 438.5  C 615 456.14  601.14 470  583.5 470  C 565.86 470  552 456.14  552 438.5  C 552 420.86  565.86 407  583.5 407  Z " stroke-width="2" stroke="#3e8df7" fill="none" />
  </g>
</svg>