<?xml version="1.0" encoding="utf-8"?>
<svg version="1.1" xmlns:xlink="http://www.w3.org/1999/xlink" width="19px" height="20px" xmlns="http://www.w3.org/2000/svg">
  <g transform="matrix(1 0 0 1 -326 -707 )">
    <path d="M 18.40625 10  C 18.40625 4.83036794084819  14.4111504561942 0.625  9.5 0.625  C 4.58946510881698 0.625  0.59375 4.83036794084819  0.59375 10  C 0.59375 15.1696320591518  4.58884954380578 19.375  9.5 19.375  C 14.410534891183 19.375  18.40625 15.1696320591518  18.40625 10  Z M 10.4014485389928 10.0026638183594  L 13.1331180339704 12.8875007114955  C 13.3812215673828 13.1499942243304  13.3805718087332 13.5732164411272  13.1318527301897 13.8343780552455  C 13.0078180702427 13.9642929129464  12.845584682966 14.029916280692  12.682735750558 14.029916280692  C 12.5192370595005 14.029916280692  12.3563881270927 13.9642928920201  12.2323192536273 13.8330461356027  L 9.49681963378904 10.9448614676339  L 6.75242863420759 13.8029162667411  C 6.62839397426062 13.9314992047991  6.46677615199499 13.9964386369978  6.30519252336773 13.9964386369978  C 6.14107826729909 13.9964386369978  5.97757959612166 13.930131312779  5.85289515764512 13.7975526367188  C 5.60605692801341 13.5343751674107  5.60797199044364 13.1111529506138  5.85799060616632 12.8506752929687  L 8.59920121965679 9.9966522251674  L 5.86814728969029 7.11249926757813  C 5.62004375627791 6.85065369698663  5.62069351492746 6.42678353794645  5.86941259347097 6.1656219238281  C 6.1181658855329 5.90377635323659  6.52019277797152 5.90514426618302  6.7689460700335 6.16695382254466  L 9.5037959312221 9.05445453404019  L 12.2481869308036 6.19643572823662  C 12.4975557679967 5.93595807059154  12.9008821777344 5.93862186802454  13.1477204073661 6.20179935825894  C 13.3951741821289 6.46497682756694  13.3926435745675 6.88884698660712  13.1426249588449 7.14867670200891  L 10.4014485389928 10.0026638183594  Z " fill-rule="nonzero" fill="#dcdee3" stroke="none" transform="matrix(1 0 0 1 326 707 )" />
  </g>
</svg>