<?xml version="1.0" encoding="utf-8"?>
<svg version="1.1" xmlns:xlink="http://www.w3.org/1999/xlink" width="13px" height="20px" xmlns="http://www.w3.org/2000/svg">
  <g transform="matrix(1 0 0 1 -734 -1142 )">
    <path d="M 12.59375 10  C 12.59375 4.83036794084819  9.86026083844868 0.625  6.5 0.625  C 3.14016033761162 0.625  0.40625 4.83036794084819  0.40625 10  C 0.40625 15.1696320591518  3.13973916155132 19.375  6.5 19.375  C 9.85983966238838 19.375  12.59375 15.1696320591518  12.59375 10  Z M 7.11678057931083 10.0026638183594  L 8.98581760219028 12.8875007114955  C 9.1555726513672 13.1499942243304  9.15512807965958 13.5732164411272  8.98495186802455 13.8343780552455  C 8.90008604806083 13.9642929129464  8.7890842567662 14.029916280692  8.67766130301339 14.029916280692  C 8.565793777553 14.029916280692  8.45437082380023 13.9642928920201  8.36948159458707 13.8330461356027  L 6.49782395996093 10.9448614676339  L 4.62008274972098 13.8029162667411  C 4.53521692975726 13.9314992047991  4.42463631452289 13.9964386369978  4.31407909493581 13.9964386369978  C 4.20179039341516 13.9964386369978  4.08992288155693 13.930131312779  4.0046124762835 13.7975526367188  C 3.83572316127234 13.5343751674107  3.83703346714565 13.1111529506138  4.00809883579801 12.8506752929687  L 5.88366399239675 9.9966522251674  L 4.01504814557757 7.11249926757813  C 3.84529309640068 6.85065369698663  3.84573766810826 6.42678353794645  4.01591387974329 6.1656219238281  C 4.18611350062777 5.90377635323659  4.4611845322963 5.90514426618302  4.63138415318082 6.16695382254466  L 6.50259721609933 9.05445453404019  L 8.38033842633927 6.19643572823662  C 8.55095920968193 5.93595807059154  8.82691938476563 5.93862186802454  8.99580869977679 6.20179935825894  C 9.1651191772461 6.46497682756694  9.16338770891461 6.88884698660712  8.99232234026229 7.14867670200891  L 7.11678057931083 10.0026638183594  Z " fill-rule="nonzero" fill="#dcdee3" stroke="none" transform="matrix(1 0 0 1 734 1142 )" />
  </g>
</svg>