<?xml version="1.0" encoding="utf-8"?>
<svg version="1.1" xmlns:xlink="http://www.w3.org/1999/xlink" width="15px" height="20px" xmlns="http://www.w3.org/2000/svg">
  <g transform="matrix(1 0 0 1 -1092 -560 )">
    <path d="M 14.53125 10  C 14.53125 4.83036794084819  11.3772240443639 0.625  7.5 0.625  C 3.62326192801341 0.625  0.46875 4.83036794084819  0.46875 10  C 0.46875 15.1696320591518  3.62277595563614 19.375  7.5 19.375  C 11.3767380719866 19.375  14.53125 15.1696320591518  14.53125 10  Z M 8.21166989920481 10.0026638183594  L 10.3682510794503 12.8875007114955  C 10.5641222900391 13.1499942243304  10.5636093226841 13.5732164411272  10.3672521554129 13.8343780552455  C 10.2693300554548 13.9642929129464  10.1412510654995 14.029916280692  10.0126861188616 14.029916280692  C 9.88360820486885 14.029916280692  9.75504325823104 13.9642928920201  9.65709414760046 13.8330461356027  L 7.4974891845703 10.9448614676339  L 5.33086471121652 13.8029162667411  C 5.23294261125838 13.9314992047991  5.10534959368026 13.9964386369978  4.97778357107978 13.9964386369978  C 4.8482196847098 13.9964386369978  4.71914178641184 13.930131312779  4.62070670340404 13.7975526367188  C 4.42583441685269 13.5343751674107  4.42734630824498 13.1111529506138  4.62472942592078 12.8506752929687  L 6.7888430681501 9.9966522251674  L 4.63274786028181 7.11249926757813  C 4.43687664969309 6.85065369698663  4.437389617048 6.42678353794645  4.63374678431919 6.1656219238281  C 4.83013096226281 5.90377635323659  5.14752061418804 5.90514426618302  5.34390479213171 6.16695382254466  L 7.50299678780692 9.05445453404019  L 9.6696212611607 6.19643572823662  C 9.86649139578684 5.93595807059154  10.1849069824219 5.93862186802454  10.3797792689732 6.20179935825894  C 10.575137512207 6.46497682756694  10.5731396641322 6.88884698660712  10.3757565464565 7.14867670200891  L 8.21166989920481 10.0026638183594  Z " fill-rule="nonzero" fill="#dcdee3" stroke="none" transform="matrix(1 0 0 1 1092 560 )" />
  </g>
</svg>