<?xml version="1.0" encoding="utf-8"?>
<svg version="1.1" xmlns:xlink="http://www.w3.org/1999/xlink" width="14px" height="20px" xmlns="http://www.w3.org/2000/svg">
  <g transform="matrix(1 0 0 1 -1093 -486 )">
    <path d="M 13.5625 10  C 13.5625 4.83036794084819  10.6187424414063 0.625  7 0.625  C 3.38171113281251 0.625  0.4375 4.83036794084819  0.4375 10  C 0.4375 15.1696320591518  3.38125755859373 19.375  7 19.375  C 10.6182888671875 19.375  13.5625 15.1696320591518  13.5625 10  Z M 7.66422523925782 10.0026638183594  L 9.6770343408203 12.8875007114955  C 9.85984747070314 13.1499942243304  9.85936870117185 13.5732164411272  9.67610201171875 13.8343780552455  C 9.58470805175781 13.9642929129464  9.46516766113283 14.029916280692  9.3451737109375 14.029916280692  C 9.22470099121093 14.029916280692  9.10470704101564 13.9642928920201  9.01328787109376 13.8330461356027  L 6.99765657226561 10.9448614676339  L 4.97547373046875 13.8029162667411  C 4.88407977050782 13.9314992047991  4.76499295410157 13.9964386369978  4.6459313330078 13.9964386369978  C 4.52500503906248 13.9964386369978  4.40453233398438 13.930131312779  4.31265958984377 13.7975526367188  C 4.13077878906252 13.5343751674107  4.13218988769531 13.1111529506138  4.31641413085939 12.8506752929687  L 6.33625353027343 9.9966522251674  L 4.32389800292969 7.11249926757813  C 4.14108487304688 6.85065369698663  4.14156364257813 6.42678353794645  4.32483033203124 6.1656219238281  C 4.50812223144529 5.90377635323659  4.80435257324217 5.90514426618302  4.98764447265626 6.16695382254466  L 7.00279700195313 9.05445453404019  L 9.02497984374999 6.19643572823662  C 9.20872530273438 5.93595807059154  9.50591318359375 5.93862186802454  9.68779398437501 6.20179935825894  C 9.87012834472657 6.46497682756694  9.86826368652343 6.88884698660712  9.68403944335939 7.14867670200891  L 7.66422523925782 10.0026638183594  Z " fill-rule="nonzero" fill="#dcdee3" stroke="none" transform="matrix(1 0 0 1 1093 486 )" />
  </g>
</svg>