<?xml version="1.0" encoding="utf-8"?>
<svg version="1.1" xmlns:xlink="http://www.w3.org/1999/xlink" width="18px" height="20px" xmlns="http://www.w3.org/2000/svg">
  <g transform="matrix(1 0 0 1 -328 -632 )">
    <path d="M 17.4375 10  C 17.4375 4.83036794084819  13.6526688532366 0.625  9 0.625  C 4.34791431361609 0.625  0.5625 4.83036794084819  0.5625 10  C 0.5625 15.1696320591518  4.34733114676337 19.375  9 19.375  C 13.6520856863839 19.375  17.4375 15.1696320591518  17.4375 10  Z M 9.85400387904577 10.0026638183594  L 12.4419012953404 12.8875007114955  C 12.6769467480469 13.1499942243304  12.676331187221 13.5732164411272  12.4407025864955 13.8343780552455  C 12.3231960665458 13.9642929129464  12.1695012785994 14.029916280692  12.0152233426339 14.029916280692  C 11.8603298458426 14.029916280692  11.7060519098772 13.9642928920201  11.5885129771206 13.8330461356027  L 8.99698702148436 10.9448614676339  L 6.39703765345983 13.8029162667411  C 6.27953113351006 13.9314992047991  6.12641951241631 13.9964386369978  5.97334028529574 13.9964386369978  C 5.81786362165176 13.9964386369978  5.66297014369421 13.930131312779  5.54484804408485 13.7975526367188  C 5.31100130022323 13.5343751674107  5.31281556989397 13.1111529506138  5.54967531110493 12.8506752929687  L 8.14661168178012 9.9966522251674  L 5.55929743233817 7.11249926757813  C 5.32425197963171 6.85065369698663  5.3248675404576 6.42678353794645  5.56049614118302 6.1656219238281  C 5.79615715471538 5.90377635323659  6.17702473702565 5.90514426618302  6.41268575055805 6.16695382254466  L 9.00359614536831 9.05445453404019  L 11.6035455133928 6.19643572823662  C 11.8397896749442 5.93595807059154  12.2218883789063 5.93862186802454  12.4557351227679 6.20179935825894  C 12.6901650146484 6.46497682756694  12.6877675969587 6.88884698660712  12.4509078557478 7.14867670200891  L 9.85400387904577 10.0026638183594  Z " fill-rule="nonzero" fill="#dcdee3" stroke="none" transform="matrix(1 0 0 1 328 632 )" />
  </g>
</svg>