<?xml version="1.0" encoding="utf-8"?>
<svg version="1.1" xmlns:xlink="http://www.w3.org/1999/xlink" width="16px" height="20px" xmlns="http://www.w3.org/2000/svg">
  <g transform="matrix(1 0 0 1 -330 -560 )">
    <path d="M 15.5 10  C 15.5 4.83036794084819  12.1357056473214 0.625  8 0.625  C 3.8648127232143 0.625  0.5 4.83036794084819  0.5 10  C 0.5 15.1696320591518  3.86429435267855 19.375  8 19.375  C 12.1351872767857 19.375  15.5 15.1696320591518  15.5 10  Z M 8.75911455915179 10.0026638183594  L 11.0594678180803 12.8875007114955  C 11.268397109375 13.1499942243304  11.2678499441964 13.5732164411272  11.0584022991071 13.8343780552455  C 10.9539520591518 13.9642929129464  10.8173344698661 14.029916280692  10.6801985267857 14.029916280692  C 10.5425154185268 14.029916280692  10.4053794754464 13.9642928920201  10.3009004241072 13.8330461356027  L 7.99732179687499 10.9448614676339  L 5.68625569196429 13.8029162667411  C 5.58180545200894 13.9314992047991  5.44570623325894 13.9964386369978  5.30963580915177 13.9964386369978  C 5.17143433035712 13.9964386369978  5.0337512388393 13.930131312779  4.92875381696431 13.7975526367188  C 4.72089004464287 13.5343751674107  4.72250272879464 13.1111529506138  4.93304472098216 12.8506752929687  L 7.24143260602677 9.9966522251674  L 4.94159771763393 7.11249926757813  C 4.7326684263393 6.85065369698663  4.73321559151786 6.42678353794645  4.94266323660713 6.1656219238281  C 5.15213969308033 5.90377635323659  5.49068865513391 5.90514426618302  5.70016511160716 6.16695382254466  L 8.00319657366072 9.05445453404019  L 10.3142626785714 6.19643572823662  C 10.5242574888393 5.93595807059154  10.86390078125 5.93862186802454  11.0717645535714 6.20179935825894  C 11.2801466796875 6.46497682756694  11.2780156417411 6.88884698660712  11.0674736495536 7.14867670200891  L 8.75911455915179 10.0026638183594  Z " fill-rule="nonzero" fill="#dcdee3" stroke="none" transform="matrix(1 0 0 1 330 560 )" />
  </g>
</svg>