<?xml version="1.0" encoding="utf-8"?>
<svg version="1.1" xmlns:xlink="http://www.w3.org/1999/xlink" width="86px" height="188px" xmlns="http://www.w3.org/2000/svg">
  <defs>
    <filter x="1391px" y="485px" width="86px" height="188px" filterUnits="userSpaceOnUse" id="filter5">
      <feOffset dx="5" dy="5" in="SourceAlpha" result="shadowOffsetInner" />
      <feGaussianBlur stdDeviation="2.5" in="shadowOffsetInner" result="shadowGaussian" />
      <feComposite in2="shadowGaussian" operator="atop" in="SourceAlpha" result="shadowComposite" />
      <feColorMatrix type="matrix" values="0 0 0 0 0.666666666666667  0 0 0 0 0.666666666666667  0 0 0 0 0.666666666666667  0 0 0 0.349019607843137 0  " in="shadowComposite" />
    </filter>
    <g id="widget6">
      <path d="M 1391.5 644.883657668968  C 1391.5 644.883657668968  1391.5 489  1391.5 489  C 1391.5 487.067003375592  1393.06700337559 485.5  1395 485.5  C 1395 485.5  1463 485.5  1463 485.5  C 1464.93299662441 485.5  1466.5 487.067003375592  1466.5 489  C 1466.5 489  1466.5 644.883657668968  1466.5 644.883657668968  C 1466.5 646.816654293376  1464.93299662441 648.383657668968  1463 648.383657668968  C 1463 648.383657668968  1458.40906475196 648.383657668968  1458.40906475196 648.383657668968  C 1458.40906475196 648.383657668968  1448.94299049519 662.003198476218  1448.94299049519 662.003198476218  C 1448.94299049519 662.003198476218  1438.92334464446 648.383657668968  1438.92334464446 648.383657668968  C 1438.92334464446 648.383657668968  1395 648.383657668968  1395 648.383657668968  C 1393.06700337559 648.383657668968  1391.5 646.816654293376  1391.5 644.883657668968  Z " fill-rule="nonzero" fill="#ffffff" stroke="none" />
      <path d="M 1391 644.883657668968  C 1391 644.883657668968  1391 489  1391 489  C 1391 486.790861000677  1392.79086100068 485  1395 485  C 1395 485  1463 485  1463 485  C 1465.20913899932 485  1467 486.790861000677  1467 489  C 1467 489  1467 644.883657668968  1467 644.883657668968  C 1467 647.092796668292  1465.20913899932 648.883657668968  1463 648.883657668968  C 1463 648.883657668968  1458.67045454545 648.883657668968  1458.67045454545 648.883657668968  C 1458.67045454545 648.883657668968  1448.95454545455 662.862654320988  1448.95454545455 662.862654320988  C 1448.95454545455 662.862654320988  1438.67045454545 648.883657668968  1438.67045454545 648.883657668968  C 1438.67045454545 648.883657668968  1395 648.883657668968  1395 648.883657668968  C 1392.79086100068 648.883657668968  1391 647.092796668292  1391 644.883657668968  Z M 1392 644.883657668968  C 1392 646.540511918461  1393.34314575051 647.883657668968  1395 647.883657668968  C 1395 647.883657668968  1439.17623474346 647.883657668968  1439.17623474346 647.883657668968  C 1439.17623474346 647.883657668968  1448.93143553584 661.143742631449  1448.93143553584 661.143742631449  C 1448.93143553584 661.143742631449  1458.14767495847 647.883657668968  1458.14767495847 647.883657668968  C 1458.14767495847 647.883657668968  1463 647.883657668968  1463 647.883657668968  C 1464.65685424949 647.883657668968  1466 646.540511918461  1466 644.883657668968  C 1466 644.883657668968  1466 489  1466 489  C 1466 487.343145750508  1464.65685424949 486  1463 486  C 1463 486  1395 486  1395 486  C 1393.34314575051 486  1392 487.343145750508  1392 489  C 1392 489  1392 644.883657668968  1392 644.883657668968  Z " fill-rule="nonzero" fill="#d7d7d7" stroke="none" />
    </g>
  </defs>
  <g transform="matrix(1 0 0 1 -1391 -485 )">
    <use xlink:href="#widget6" filter="url(#filter5)" />
    <use xlink:href="#widget6" />
  </g>
</svg>