<?xml version="1.0" encoding="utf-8"?>
<svg version="1.1" xmlns:xlink="http://www.w3.org/1999/xlink" width="86px" height="183px" xmlns="http://www.w3.org/2000/svg">
  <defs>
    <filter x="1382px" y="323px" width="86px" height="183px" filterUnits="userSpaceOnUse" id="filter117">
      <feOffset dx="5" dy="5" in="SourceAlpha" result="shadowOffsetInner" />
      <feGaussianBlur stdDeviation="2.5" in="shadowOffsetInner" result="shadowGaussian" />
      <feComposite in2="shadowGaussian" operator="atop" in="SourceAlpha" result="shadowComposite" />
      <feColorMatrix type="matrix" values="0 0 0 0 0.666666666666667  0 0 0 0 0.666666666666667  0 0 0 0 0.666666666666667  0 0 0 0.349019607843137 0  " in="shadowComposite" />
    </filter>
    <g id="widget118">
      <path d="M 1382.5 478.280184138941  C 1382.5 478.280184138941  1382.5 327  1382.5 327  C 1382.5 325.067003375592  1384.06700337559 323.5  1386 323.5  C 1386 323.5  1454 323.5  1454 323.5  C 1455.93299662441 323.5  1457.5 325.067003375592  1457.5 327  C 1457.5 327  1457.5 478.280184138941  1457.5 478.280184138941  C 1457.5 480.213180763349  1455.93299662441 481.780184138941  1454 481.780184138941  C 1454 481.780184138941  1449.41332101987 481.780184138941  1449.41332101987 481.780184138941  C 1449.41332101987 481.780184138941  1439.94310339704 495.022947488118  1439.94310339704 495.022947488118  C 1439.94310339704 495.022947488118  1429.91907187813 481.780184138941  1429.91907187813 481.780184138941  C 1429.91907187813 481.780184138941  1386 481.780184138941  1386 481.780184138941  C 1384.06700337559 481.780184138941  1382.5 480.213180763349  1382.5 478.280184138941  Z " fill-rule="nonzero" fill="#ffffff" stroke="none" />
      <path d="M 1382 478.280184138941  C 1382 478.280184138941  1382 327  1382 327  C 1382 324.790861000677  1383.79086100068 323  1386 323  C 1386 323  1454 323  1454 323  C 1456.20913899932 323  1458 324.790861000677  1458 327  C 1458 327  1458 478.280184138941  1458 478.280184138941  C 1458 480.489323138264  1456.20913899932 482.280184138941  1454 482.280184138941  C 1454 482.280184138941  1449.67045454545 482.280184138941  1449.67045454545 482.280184138941  C 1449.67045454545 482.280184138941  1439.95454545455 495.866512345679  1439.95454545455 495.866512345679  C 1439.95454545455 495.866512345679  1429.67045454545 482.280184138941  1429.67045454545 482.280184138941  C 1429.67045454545 482.280184138941  1386 482.280184138941  1386 482.280184138941  C 1383.79086100068 482.280184138941  1382 480.489323138264  1382 478.280184138941  Z M 1383 478.280184138941  C 1383 479.937038388434  1384.34314575051 481.280184138941  1386 481.280184138941  C 1386 481.280184138941  1430.16768921081 481.280184138941  1430.16768921081 481.280184138941  C 1430.16768921081 481.280184138941  1439.93166133953 494.179382630558  1439.93166133953 494.179382630558  C 1439.93166133953 494.179382630558  1449.15618749429 481.280184138941  1449.15618749429 481.280184138941  C 1449.15618749429 481.280184138941  1454 481.280184138941  1454 481.280184138941  C 1455.65685424949 481.280184138941  1457 479.937038388434  1457 478.280184138941  C 1457 478.280184138941  1457 327  1457 327  C 1457 325.343145750508  1455.65685424949 324  1454 324  C 1454 324  1386 324  1386 324  C 1384.34314575051 324  1383 325.343145750508  1383 327  C 1383 327  1383 478.280184138941  1383 478.280184138941  Z " fill-rule="nonzero" fill="#d7d7d7" stroke="none" />
    </g>
  </defs>
  <g transform="matrix(1 0 0 1 -1382 -323 )">
    <use xlink:href="#widget118" filter="url(#filter117)" />
    <use xlink:href="#widget118" />
  </g>
</svg>